<svg xmlns="http://www.w3.org/2000/svg" viewBox="0 0 512 512">
  <defs>
    <radialGradient id="bg" cx="50%" cy="45%" r="75%">
      <stop offset="0" stop-color="#14294a"/>
      <stop offset="0.55" stop-color="#070b24"/>
      <stop offset="1" stop-color="#050414"/>
    </radialGradient>
    <linearGradient id="g" x1="116" y1="102" x2="402" y2="407" gradientUnits="userSpaceOnUse">
      <stop offset="0" stop-color="#16F5EF"/>
      <stop offset="0.47" stop-color="#286DFF"/>
      <stop offset="1" stop-color="#F040FF"/>
    </linearGradient>
  </defs>
  <rect width="512" height="512" rx="122" fill="url(#bg)"/>
  <circle cx="256" cy="260" r="178" fill="none" stroke="#22e8ff" stroke-opacity="0.18" stroke-width="2"/>
  <circle cx="256" cy="260" r="130" fill="none" stroke="#f040ff" stroke-opacity="0.2" stroke-width="2" stroke-dasharray="8 12"/>
  <path d="M142 98C163 98 179 114 179 135V306C179 357 211 390 263 390H348C383 390 410 363 410 329C410 288 375 262 336 279C308 291 287 314 264 339C249 356 223 356 209 338C195 321 197 298 212 282C244 247 279 210 331 195C399 176 464 224 464 329C464 410 405 462 348 462H263C167 462 106 400 106 306V135C106 114 122 98 142 98Z" fill="url(#g)"/>
  <circle cx="365" cy="82" r="24" fill="url(#g)"/>
</svg>
