<svg width="512" height="512" viewBox="0 0 512 512" fill="none" xmlns="http://www.w3.org/2000/svg"><defs><radialGradient id="bg" cx="50%" cy="44%" r="65%"><stop offset="0%" stop-color="#172A5C"/><stop offset="54%" stop-color="#070B1E"/><stop offset="100%" stop-color="#03040B"/></radialGradient><linearGradient id="s" x1="100" y1="135" x2="410" y2="390"><stop stop-color="#67E8F9"/><stop offset=".48" stop-color="#8B5CF6"/><stop offset="1" stop-color="#EC5CFF"/></linearGradient><filter id="g" x="-40" y="-40" width="592" height="592"><feGaussianBlur stdDeviation="9" result="b"/><feColorMatrix in="b" type="matrix" values="0 0 0 0 .35 0 0 0 0 .78 0 0 0 0 1 0 0 0 .9 0"/><feBlend in="SourceGraphic" mode="screen"/></filter></defs><rect width="512" height="512" rx="120" fill="url(#bg)"/><circle cx="256" cy="246" r="158" stroke="#67E8F9" stroke-opacity=".12" stroke-width="2"/><circle cx="256" cy="246" r="114" stroke="#EC5CFF" stroke-opacity=".18" stroke-width="2" stroke-dasharray="5 9"/><g filter="url(#g)"><path d="M132 316C158 382 217 420 288 407C373 391 426 306 401 226C379 155 309 113 239 127C170 141 126 203 136 268C145 331 210 359 274 314C318 283 333 238 385 251C352 220 309 225 271 259C226 300 175 288 166 247C155 196 192 150 246 140C310 129 369 166 389 229C413 307 360 383 283 395C222 405 168 374 143 318C135 301 129 286 126 266C123 284 126 302 132 316Z" fill="url(#s)"/><path d="M165 319C219 284 240 248 260 213C290 160 346 164 381 207C334 188 303 213 279 257C246 319 208 343 165 319Z" fill="white" opacity=".92"/></g><path d="M386 122L399 154L431 167L399 180L386 212L373 180L341 167L373 154L386 122Z" fill="#EC5CFF"/><text x="256" y="448" text-anchor="middle" fill="white" font-family="Arial,sans-serif" font-size="62" font-weight="900" letter-spacing="9">LIA</text></svg>