<svg xmlns="http://www.w3.org/2000/svg" viewBox="0 0 512 512" width="512" height="512">
  <defs>
    <linearGradient id="liaGradient" x1="92" y1="108" x2="420" y2="398" gradientUnits="userSpaceOnUse">
      <stop offset="0" stop-color="#3CE8FF"/>
      <stop offset="0.52" stop-color="#7C4DFF"/>
      <stop offset="1" stop-color="#EC5CFF"/>
    </linearGradient>
    <radialGradient id="liaBg" cx="50%" cy="42%" r="72%">
      <stop offset="0" stop-color="#18304D"/>
      <stop offset="0.55" stop-color="#0A102B"/>
      <stop offset="1" stop-color="#050414"/>
    </radialGradient>
    <filter id="softGlow" x="-30%" y="-30%" width="160%" height="160%">
      <feGaussianBlur stdDeviation="10" result="blur"/>
      <feColorMatrix in="blur" type="matrix" values="0 0 0 0 0.23 0 0 0 0 0.91 0 0 0 0 1 0 0 0 0.85 0"/>
      <feBlend in="SourceGraphic" mode="screen"/>
    </filter>
  </defs>
  <rect width="512" height="512" rx="122" fill="url(#liaBg)"/>
  <circle cx="256" cy="255" r="160" fill="none" stroke="#3CE8FF" stroke-opacity="0.18" stroke-width="2"/>
  <circle cx="256" cy="255" r="118" fill="none" stroke="#EC5CFF" stroke-opacity="0.22" stroke-width="2" stroke-dasharray="8 10"/>
  <g filter="url(#softGlow)">
    <path d="M154 155C174 151 190 166 190 187V287C190 318 214 342 245 342H347C370 342 387 360 387 382C387 404 370 421 347 421H243C167 421 108 362 108 286V190C108 171 124 158 154 155Z" fill="url(#liaGradient)"/>
    <path d="M200 342C245 313 265 275 285 238C316 178 371 181 407 227C359 207 330 230 303 282C274 338 236 363 200 342Z" fill="#FFFFFF" fill-opacity="0.92"/>
    <circle cx="395" cy="132" r="23" fill="#9B5CFF"/>
  </g>
  <text x="256" y="465" text-anchor="middle" font-family="Arial, sans-serif" font-size="54" font-weight="900" fill="#FFFFFF">lia.ai</text>
</svg>
