<svg width="512" height="512" viewBox="0 0 512 512" fill="none" xmlns="http://www.w3.org/2000/svg">
  <defs>
    <radialGradient id="bg" cx="50%" cy="45%" r="60%">
      <stop offset="0%" stop-color="#1C2A58"/>
      <stop offset="55%" stop-color="#090D20"/>
      <stop offset="100%" stop-color="#050710"/>
    </radialGradient>
    <linearGradient id="g" x1="106" y1="130" x2="406" y2="382" gradientUnits="userSpaceOnUse">
      <stop stop-color="#67E8F9"/>
      <stop offset="0.48" stop-color="#8B5CF6"/>
      <stop offset="1" stop-color="#EC5CFF"/>
    </linearGradient>
    <filter id="glow" x="0" y="0" width="512" height="512" filterUnits="userSpaceOnUse">
      <feGaussianBlur stdDeviation="11" result="blur"/>
      <feColorMatrix in="blur" type="matrix" values="0 0 0 0 0.25 0 0 0 0 0.78 0 0 0 0 1 0 0 0 0.85 0"/>
      <feBlend in="SourceGraphic" mode="screen"/>
    </filter>
  </defs>
  <rect width="512" height="512" rx="126" fill="url(#bg)"/>
  <path opacity="0.22" d="M84 300C162 118 354 96 420 216C463 294 396 405 288 406C173 408 112 344 84 300Z" stroke="#67E8F9" stroke-width="2"/>
  <g filter="url(#glow)">
    <path d="M157 316C206 408 306 409 354 322C397 244 345 143 259 140C180 138 138 207 150 262C163 324 235 342 293 286C334 246 382 246 410 286C376 263 347 276 312 314C243 389 155 357 139 283C123 211 179 111 279 115C393 119 464 253 403 356C338 465 201 456 132 342C117 317 103 277 106 246C111 272 132 298 157 316Z" fill="url(#g)"/>
    <path d="M160 318C215 278 238 246 256 215C289 157 350 159 385 204C333 180 302 207 276 255C244 314 208 338 160 318Z" fill="white" opacity="0.88"/>
  </g>
  <path d="M381 133L392 160L419 171L392 182L381 209L370 182L343 171L370 160L381 133Z" fill="#EC5CFF"/>
  <text x="256" y="438" text-anchor="middle" fill="white" font-family="Arial, sans-serif" font-size="58" font-weight="800" letter-spacing="8">LIA</text>
</svg>